<?xml version="1.0" encoding="UTF-8" standalone="no"?>
<!-- Created with Inkscape (http://www.inkscape.org/) -->

<svg
   width="24.616159mm"
   height="24mm"
   viewBox="0 0 24.616159 24"
   version="1.1"
   id="svg1"
   xml:space="preserve"
   xmlns="http://www.w3.org/2000/svg"
   xmlns:svg="http://www.w3.org/2000/svg"><defs
     id="defs1"><clipPath
       clipPathUnits="userSpaceOnUse"
       id="clipPath5"><rect
         style="fill:#fa0000;fill-opacity:1;stroke-width:0.263203"
         id="rect6"
         width="7.4161"
         height="8.2875767"
         x="8.8120718"
         y="7.7585826" /></clipPath></defs><g
     id="layer1"><g
       style="fill:none"
       id="g1"
       transform="scale(1.0105156,1)"><ellipse
         cx="12.18"
         cy="12"
         rx="12.18"
         ry="12"
         fill="#ff0000"
         id="ellipse1" /><ellipse
         cx="12.18"
         cy="12"
         rx="7.3080001"
         ry="7.1999998"
         fill="#ff0000"
         stroke="#ffffff"
         stroke-width="1.2"
         id="ellipse2" /><path
         d="M 9.744,15.545 16.071,12.001 9.744,8.455 Z M 37.433,9.642 c -0.579,2.853 -1.019,6.336 -1.25,7.774 H 36.02 C 35.833,15.934 35.393,12.474 34.793,9.666 L 33.31,2.677 h -4.52 v 18.85 h 2.803 V 5.987 l 0.277,1.451 2.85,14.086 h 2.804 l 2.803,-14.086 0.3,-1.459 v 15.547 h 2.804 V 2.676 h -4.563 z m 13.577,9.054 c -0.256,0.517 -0.81,0.876 -1.368,0.876 -0.648,0 -0.904,-0.494 -0.904,-1.706 V 7.754 H 45.54 v 10.29 c 0,2.54 0.856,3.706 2.758,3.706 1.296,0 2.338,-0.562 3.058,-1.909 h 0.07 l 0.277,1.684 h 2.502 V 7.755 h -3.198 v 10.94 h 0.003 z m 9.382,-5.506 c -1.043,-0.742 -1.691,-1.236 -1.691,-2.314 0,-0.763 0.37,-1.19 1.25,-1.19 0.905,0 1.206,0.605 1.227,2.674 l 2.689,-0.111 c 0.208,-3.346 -0.928,-4.74 -3.87,-4.74 -2.733,0 -4.078,1.19 -4.078,3.638 0,2.224 1.113,3.235 2.92,4.562 1.553,1.169 2.457,1.82 2.457,2.764 0,0.72 -0.464,1.213 -1.275,1.213 -0.95,0 -1.507,-0.877 -1.365,-2.405 l -2.71,0.044 c -0.419,2.852 0.766,4.515 3.915,4.515 2.758,0 4.195,-1.236 4.195,-3.706 -0.003,-2.247 -1.16,-3.147 -3.664,-4.944 z m 8.48,-5.436 h -3.059 v 13.77 h 3.06 V 7.755 Z M 67.365,2.316 c -1.18,0 -1.738,0.427 -1.738,1.911 0,1.528 0.554,1.909 1.739,1.909 1.205,0 1.738,-0.383 1.738,-1.909 0,-1.414 -0.533,-1.911 -1.739,-1.911 z M 79.158,16.56 76.355,16.425 c 0,2.426 -0.277,3.212 -1.226,3.212 -0.95,0 -1.113,-0.877 -1.113,-3.73 v -2.67 c 0,-2.765 0.187,-3.639 1.137,-3.639 0.88,0 1.112,0.83 1.112,3.393 l 2.778,-0.178 C 79.23,10.679 78.95,9.218 78.094,8.388 77.467,7.78 76.518,7.491 75.198,7.491 c -3.104,0 -4.379,1.618 -4.379,6.154 v 1.932 c 0,4.673 1.088,6.178 4.264,6.178 1.344,0 2.27,-0.27 2.896,-0.854 0.902,-0.814 1.249,-2.205 1.18,-4.341 z"
         fill="#ffffff"
         id="path2"
         clip-path="url(#clipPath5)" /></g></g></svg>
